#N canvas 1 23 1440 808 10;
#X text 280 274 5;
#X text 377 274 10;
#N canvas 3 25 1440 808 synth 0;
#X text 203 1004 end;
#X obj 54 462 *~;
#X obj 16 255 osc~;
#X obj 270 502 +~;
#X obj 284 479 *~;
#X obj 269 527 osc~;
#X obj 284 456 phasor~;
#X obj 54 437 osc~;
#X obj 117 462 *~;
#X obj 117 437 osc~;
#X obj 698 382 *~;
#X obj 795 250 vsl 15 64 0 1 0 0 empty empty empty 0 -9 0 10 -262144
-1 -1 0 1;
#X obj 117 412 *~ 1.32;
#X obj 284 433 lop~ 5;
#X obj 40 118 lop~ 20;
#X obj 917 482 *~;
#X floatatom 921 383 5 0 0 0 - - -, f 5;
#X obj 916 358 hsl 128 15 0 1 0 0 empty empty empty -2 -8 0 10 -262144
-1 -1 0 1;
#X text 911 282 finger size;
#N canvas 121 78 1150 707 sensors 0;
#X obj 233 219 route y size;
#X obj 233 134 r bbb_touchkeys;
#X obj 233 166 route 0 1;
#X obj 233 192 route 0 1 2 3 4 x count;
#X text 475 224 << route touch ID \,;
#X text 495 234 average x position \,;
#X text 494 244 touch count;
#X text 469 271 << for each touch ID \,;
#X text 488 281 route y position;
#X text 488 291 and touch size;
#X obj 293 257 s fingersize;
#X text 496 498 ADC 3: Analog In 0;
#X text 286 451 << Use first two analog in's;
#X text 496 452 ADC routing:;
#X text 499 459 ------------;
#X text 496 508 ADC 4: Analog In 1;
#X text 496 518 ADC 5: Analog In 2;
#X text 496 528 ADC 6: Analog In 3;
#X text 496 538 ADC 7: Analog In 4;
#X text 496 548 ADC 8: Analog In 5;
#X text 496 558 ADC 9: Analog In 6;
#X text 496 568 ADC 10: Analog In 7;
#X text 496 478 ADC 1: Audio In L;
#X text 496 488 ADC 2: Audio In R;
#X text 332 4 ATTACK DETECTION;
#X obj 371 257 s fingercount;
#X obj 239 477 adc~ 1 2 3 4 5;
#X obj 655 348 moses 0.5;
#X obj 706 370 pow -1;
#X obj 706 393 - 1;
#X obj 706 415 * 0.5;
#X text 648 327 combining y pos with FSR and SIZE;
#X text 425 611 contribution coeffs of each FSRs;
#X text 698 444 weighting;
#X obj 435 168 s touchBang;
#X text 514 165 << this becomes 1 for a moment when a new finger touches
to TK;
#X obj 415 557 pow~ -1;
#X obj 462 661 +~;
#X obj 550 706 +~;
#X obj 497 756 *~;
#X obj 356 559 pow~ -1;
#X obj 496 780 s~ fsr_size_y;
#X obj 655 490 lop~ 100;
#X obj 358 681 lop~ 100;
#X obj 655 446 * 1;
#X obj 247 293 print y;
#X obj 297 293 print size;
#X obj 364 293 print count;
#X obj 655 468 sig~ 1;
#X obj 415 535 +~ 0.0001;
#X obj 353 539 +~ 0.0001;
#X obj 358 659 sig~ 0.001;
#X obj 914 334 r constantinos2;
#X obj 913 361 unpack f f f f f;
#X obj 908 386 change;
#X obj 928 411 change;
#X obj 952 429 change;
#X obj 979 408 change;
#X obj 1000 386 change;
#X obj 31 583 -;
#X obj 31 512 spigot;
#X msg 61 479 0;
#X msg 96 479 1;
#X obj 115 554 spigot;
#X msg 151 528 0;
#X msg 184 528 1;
#X obj 72 369 sel 0 1;
#X obj 31 555 swap 1;
#X msg 162 347 0;
#X msg 199 346 1;
#X text 170 315 debug;
#X floatatom 155 635 5 0 0 0 - - -, f 5;
#X floatatom 74 619 5 0 0 0 - - -, f 5;
#X floatatom 162 598 5 0 0 0 - - -, f 5;
#X obj 93 337 i;
#X obj 36 274 t f b b;
#X obj 38 692 s fingery;
#X obj 407 62 change 0;
#X obj 432 87 sel 1;
#X msg 432 109 1;
#X obj 392 31 t b f f b b;
#X obj 407 120 -;
#X obj 407 141 > 0;
#X msg 921 309 0.6 1 2 0.05 0;
#X obj 431 633 *~ 1;
#X obj 479 636 *~ 1;
#X obj 462 682 *~ 0.5;
#X connect 0 0 27 0;
#X connect 0 0 75 0;
#X connect 0 1 10 0;
#X connect 0 1 51 0;
#X connect 1 0 2 0;
#X connect 2 0 3 0;
#X connect 3 0 0 0;
#X connect 3 6 25 0;
#X connect 3 6 80 0;
#X connect 26 3 50 0;
#X connect 26 4 49 0;
#X connect 27 0 44 0;
#X connect 27 1 28 0;
#X connect 28 0 29 0;
#X connect 29 0 30 0;
#X connect 30 0 44 0;
#X connect 36 0 85 0;
#X connect 37 0 86 0;
#X connect 38 0 39 1;
#X connect 39 0 41 0;
#X connect 40 0 84 0;
#X connect 42 0 38 0;
#X connect 43 0 39 0;
#X connect 44 0 48 0;
#X connect 48 0 42 0;
#X connect 49 0 36 0;
#X connect 50 0 40 0;
#X connect 51 0 43 0;
#X connect 52 0 53 0;
#X connect 53 0 54 0;
#X connect 53 1 55 0;
#X connect 53 2 56 0;
#X connect 53 3 57 0;
#X connect 53 4 58 0;
#X connect 54 0 84 1;
#X connect 55 0 85 1;
#X connect 56 0 86 1;
#X connect 57 0 30 1;
#X connect 58 0 74 1;
#X connect 59 0 71 0;
#X connect 59 0 72 0;
#X connect 59 0 76 0;
#X connect 60 0 67 0;
#X connect 61 0 60 1;
#X connect 62 0 60 1;
#X connect 63 0 71 0;
#X connect 63 0 73 0;
#X connect 63 0 76 0;
#X connect 64 0 63 1;
#X connect 65 0 63 1;
#X connect 66 0 61 0;
#X connect 66 0 65 0;
#X connect 66 1 62 0;
#X connect 66 1 64 0;
#X connect 67 0 59 0;
#X connect 67 1 59 1;
#X connect 68 0 66 0;
#X connect 69 0 66 0;
#X connect 74 0 66 0;
#X connect 75 0 63 0;
#X connect 75 0 60 0;
#X connect 75 2 74 0;
#X connect 77 0 78 0;
#X connect 77 0 81 0;
#X connect 78 0 79 0;
#X connect 80 1 81 1;
#X connect 80 2 77 0;
#X connect 81 0 82 0;
#X connect 82 0 34 0;
#X connect 84 0 37 0;
#X connect 85 0 37 1;
#X connect 86 0 38 1;
#X restore 466 10 pd sensors;
#X obj 40 17 r fingery;
#X obj 913 306 r fingersize;
#X obj 698 414 clip~ -0.6 0.6;
#X obj 741 391 * -1;
#X obj 627 558 *~;
#X obj 481 666 *~;
#X obj 178 462 *~;
#X obj 178 437 osc~;
#X obj 178 412 *~ 4;
#X floatatom 565 621 5 0 0 0 - - -, f 5;
#X obj 461 641 vcf~ 300 1;
#X obj 791 32 r~ fsr_size_y;
#X obj 793 185 snapshot~;
#X obj 862 140 loadbang;
#X obj 862 162 metro 1;
#X msg 794 204 \$1 20;
#X obj 795 226 line;
#X obj 493 594 *~ 6000;
#X obj 40 41 * 500;
#X text 836 63 scale here;
#X obj 140 386 + 1.32;
#X obj 202 386 + 4;
#X obj 818 95 lop~ 5;
#X obj 140 358 * 0.2;
#X obj 202 362 * 0.1;
#X obj 482 689 *~ 2;
#X floatatom 131 67 5 0 0 0 - - -, f 5;
#X obj 40 62 + 40;
#X obj 284 409 pow~ -1;
#X obj 917 460 lop~ 50;
#X obj 493 618 lop~ 50;
#X obj 925 435 *~ 1.5;
#X obj 287 387 +~ 0.0001;
#X obj 1058 305 loadbang;
#X msg 1058 325 0;
#X obj 713 358 *~ 0.01;
#X obj 40 96 sig~ 0.01;
#X obj 920 404 sig~ 0.01;
#X obj 54 412 *~ 0.33;
#X obj 791 62 *~ 0.04;
#X obj 1073 19 r constantinos;
#X obj 1075 48 unpack f f f f f f;
#X obj 1084 119 pack f f f f f;
#X obj 1081 148 s constantinos2;
#X obj 943 99 print constantinos;
#X text 552 46 taken from 5;
#X obj 348 723 s~ OUTPUTsynth;
#X obj 479 723 +~;
#X text 531 710 <- the output is RMS amplitude which (for a sinusoid)
is about 3 dB below peak-to-peak amplitude.;
#X text 676 658 creation arguments:;
#X text 672 674 1 window size in samples (1024 default);
#X text 672 693 2 period in samples per analysis (window/2 default)
;
#X obj 518 811 + 1;
#X floatatom 480 837 5 0 0 0 - - -, f 5;
#X obj 480 812 i;
#X msg 584 783 0;
#X text 522 839 <<--touchIn counted here;
#X obj 699 860 s this_box_envValue;
#X floatatom 697 839 5 0 0 0 - - -, f 5;
#X obj 480 858 s c3_env;
#X obj 480 751 env~ 4096 2048;
#X obj 503 899 f;
#X obj 582 900 f;
#X obj 287 807 loadbang;
#X text 373 821 debug;
#X obj 524 924 pack f f;
#X obj 287 849 t b b;
#X obj 480 776 t b b b f;
#X obj 524 948 print c3&env_of_667;
#X obj 54 516 throw~ outputt;
#X obj 269 557 throw~ outputt;
#X obj 627 533 catch~ outputt;
#X obj 698 442 throw~ outputt;
#X obj 287 829 metro 500;
#X connect 1 0 89 0;
#X connect 2 0 1 0;
#X connect 2 0 8 0;
#X connect 2 0 10 0;
#X connect 2 0 26 0;
#X connect 3 0 5 0;
#X connect 4 0 3 1;
#X connect 5 0 90 0;
#X connect 6 0 4 0;
#X connect 7 0 1 1;
#X connect 8 0 89 0;
#X connect 9 0 8 1;
#X connect 10 0 22 0;
#X connect 11 0 22 2;
#X connect 11 0 23 0;
#X connect 11 0 43 0;
#X connect 11 0 44 0;
#X connect 12 0 9 0;
#X connect 13 0 6 0;
#X connect 14 0 2 0;
#X connect 14 0 12 0;
#X connect 14 0 4 1;
#X connect 14 0 3 0;
#X connect 14 0 28 0;
#X connect 14 0 52 0;
#X connect 14 0 55 0;
#X connect 14 0 58 0;
#X connect 15 0 24 1;
#X connect 15 0 25 1;
#X connect 16 0 57 0;
#X connect 17 0 16 0;
#X connect 20 0 38 0;
#X connect 21 0 17 0;
#X connect 22 0 92 0;
#X connect 23 0 22 1;
#X connect 24 0 66 0;
#X connect 24 0 67 1;
#X connect 25 0 45 0;
#X connect 26 0 89 0;
#X connect 27 0 26 1;
#X connect 28 0 27 0;
#X connect 29 0 30 2;
#X connect 30 0 25 0;
#X connect 31 0 59 0;
#X connect 32 0 35 0;
#X connect 33 0 34 0;
#X connect 34 0 32 0;
#X connect 35 0 36 0;
#X connect 36 0 11 0;
#X connect 37 0 50 0;
#X connect 38 0 47 0;
#X connect 40 0 12 1;
#X connect 41 0 28 1;
#X connect 42 0 15 1;
#X connect 43 0 40 0;
#X connect 44 0 41 0;
#X connect 45 0 66 0;
#X connect 45 0 67 0;
#X connect 46 0 56 0;
#X connect 47 0 56 0;
#X connect 48 0 13 0;
#X connect 49 0 15 0;
#X connect 50 0 30 1;
#X connect 51 0 49 0;
#X connect 52 0 48 0;
#X connect 53 0 54 0;
#X connect 54 0 17 0;
#X connect 55 0 10 1;
#X connect 56 0 14 0;
#X connect 57 0 51 0;
#X connect 58 0 7 0;
#X connect 59 0 32 0;
#X connect 59 0 37 0;
#X connect 59 0 42 0;
#X connect 60 0 61 0;
#X connect 60 0 64 0;
#X connect 61 0 59 1;
#X connect 61 1 62 0;
#X connect 61 2 62 1;
#X connect 61 3 62 2;
#X connect 61 4 62 3;
#X connect 61 5 62 4;
#X connect 62 0 63 0;
#X connect 67 0 80 0;
#X connect 72 0 74 1;
#X connect 73 0 79 0;
#X connect 73 0 81 1;
#X connect 74 0 72 0;
#X connect 74 0 73 0;
#X connect 75 0 74 0;
#X connect 78 0 77 0;
#X connect 78 0 82 1;
#X connect 80 0 87 0;
#X connect 81 0 85 0;
#X connect 82 0 85 1;
#X connect 83 0 93 0;
#X connect 85 0 88 0;
#X connect 86 0 81 0;
#X connect 86 1 82 0;
#X connect 87 2 74 0;
#X connect 87 3 78 0;
#X connect 91 0 24 0;
#X connect 91 0 30 0;
#X connect 93 0 86 0;
#X restore 937 336 pd synth;
#X obj 1002 383 r touchBang;
#X obj 243 202 r bpm_this_box;
#X obj 31 158 s master_box;
#X obj 141 484 receive network_in;
#X text 208 594 5;
#X text 307 593 10;
#X obj 196 510 r master_box;
#X obj 165 732 pack f f;
#X obj 141 678 pack f f f, f 12;
#X text 94 655 type 1;
#X obj 141 701 unpack f f f;
#X obj 141 657 change;
#X obj 31 43 loadbang;
#X obj 31 100 bng 15 250 50 0 empty empty empty 17 7 0 10 -262144 -1
-1;
#X obj 231 637 change;
#X obj 231 663 pack f f;
#X obj 231 688 unpack f f;
#X floatatom 297 719 5 0 0 0 - - -, f 5;
#X obj 348 1047 r mute;
#X obj 413 1046 r unmute;
#X obj 348 1133 *~ 1;
#X obj 271 76 r master_network_out;
#X obj 263 102 unpack f f f f f, f 17;
#X msg 71 413 667 123 67 456 668 80 789 666 345 82;
#X msg 70 437 667 124 80 456 668 80 789 666 345 82;
#X obj 175 228 r this_box;
#X text 73 395 box c0 bpm c1 box bpm c2 solo c3 env;
#X msg 348 1069 0 1000;
#X msg 413 1067 1 1000;
#X obj 372 1107 line 0 1;
#X msg 447 868 666;
#X msg 491 868 667;
#X msg 569 868 0;
#X obj 288 979 s unmute;
#X obj 420 1005 s unmute;
#X obj 497 1004 s mute;
#X obj 497 970 sel 1;
#X obj 420 971 sel 1;
#X text 144 894 receive solo number;
#X obj 1002 361 r~ OUTPUTsynth;
#X text 997 335 sends;
#X text 1080 720 Includes:;
#X text 1099 739 - kickoffBang;
#X text 1099 766 - bpm calc. and order send;
#X text 1099 793 - solo calc. and order send;
#X text 889 -13 CONSTANTS;
#X text 305 821 TO PLAY SOLO OR NOT TO PLAY SOLO;
#X msg 900 57 40000;
#X msg 893 78 10000;
#X text 1148 76 BOX1;
#X text 1213 76 BOX2;
#X text 1278 76 BOX3;
#X obj 275 1106 r~ OUTPUTsynth;
#X text 1089 192 divider;
#X text 1065 174 fsr balance;
#X text 1041 211 touch weighting;
#X obj 203 320 send network_out;
#X msg 31 129 666;
#X obj 6 529 s receiveNetworkIN;
#X obj 1190 739 r kickoffBang;
#X floatatom 454 1140 5 0 0 0 - - -, f 5;
#X obj 420 937 == 321;
#X obj 497 936 != 321;
#X obj 453 900 r this_box;
#X msg 531 868 668;
#X text 305 840 SEND NUMBER STREAM FOR SOLOING HERE::::::;
#X text 1082 502 touch with an incremented c0 number;
#X text 1070 491 - puts out a BPM value at every;
#X text 1036 621 - takes beats and play them;
#N canvas 409 352 426 355 beatPlayer 0;
#X obj 154 34 change;
#X obj 154 63 t b f;
#X obj 147 169 metro;
#X obj 238 72 t b f;
#X obj 237 128 /;
#X msg 219 100 60000;
#X floatatom 247 162 5 0 0 0 - - -, f 5;
#X obj 147 136 tgl 15 0 empty empty empty 17 7 0 10 -262144 -1 -1 0
1;
#X obj 148 202 t b b f;
#X obj 185 234 + 1;
#X floatatom 150 259 5 0 0 0 - - -, f 5;
#X obj 147 235 i;
#X obj 147 306 sel 1;
#X msg 111 217 0;
#X obj 147 283 > 7;
#X msg 106 43 120;
#X obj 201 184 bng 15 250 50 0 empty empty empty 17 7 0 10 -262144
-1 -1;
#X obj 81 189 loadbang;
#X msg 78 217 0;
#X obj 136 12 inlet;
#N canvas 0 22 1069 582 playMyBeats 0;
#X msg 300 128 0 1000;
#X msg 315 150 39;
#X text 362 117 send a pair to ramp to a new value;
#X text 365 152 send a single number to jump;
#X msg 326 175 stop;
#X text 371 177 "stop" message to stop output;
#X msg 320 205 set 5;
#X floatatom 359 261 0 0 0 0 - - -;
#X floatatom 359 237 0 0 0 0 - - -;
#X floatatom 290 322 5 0 0 0 - - -, f 5;
#X obj 290 299 line 0 1;
#X msg 383 281 0;
#X obj 290 341 sel 100;
#X obj 452 273 table myEnvelope;
#X obj 543 423 dac~;
#X obj 21 90 noise~;
#X obj 87 104 phasor~;
#X obj 86 29 loadbang;
#X msg 86 81 60;
#X text 161 309 set internal state;
#X text 159 331 ... or just clear it;
#X obj 163 94 osc~ 220;
#X obj 291 76 inlet;
#X obj 86 53 t b b b b;
#X msg 707 124 0;
#X obj 296 386 bng 15 250 50 0 empty empty empty 17 7 0 10 -262144
-1 -1;
#N canvas 0 22 450 278 (subpatch) 0;
#X array beatz 100 float 1;
#A 0 0 0.1 0.207141 0.242855 0.30714 0.378568 0.414282 0.478567 0.549995
0.578566 0.607137 0.678565 0.785713 0.82857 0.87857 0.899998 0.921426
0.935712 0.942855 0.942855 0.942855 0.949997 0.949997 0.949997 0.949997
0.949997 0.928569 0.892855 0.835713 0.785713 0.735714 0.692857 0.642858
0.592858 0.550002 0.500002 0.450003 0.385718 0.350004 0.307147 0.307147
0.292861 0.321433 0.464288 0.535716 0.600001 0.650001 0.692857 0.678572
0.664286 0.635715 0.585716 0.44286 0.371432 0.335718 0.307147 0.292861
0.285719 0.292861 0.328575 0.414289 0.507145 0.550002 0.614287 0.707143
0.757142 0.728571 0.7 0.657143 0.621429 0.578573 0.500002 0.464288
0.39286 0.31429 0.192863 0.207148 0.257148 0.278576 0.31429 0.371432
0.385718 0.421432 0.471431 0.500002 0.535716 0.578573 0.500002 0.428574
0.407146 0.364289 0.328575 0.307147 0.257143 0.235715 0.207144 0.192858
0.17143 0.1 0;
#X coords 0 1 100 0 200 140 1 0 0;
#X restore 754 229 graph;
#X obj 450 301 tabread beatz;
#X obj 34 364 *~ 0.5;
#X obj 33 411 s~ noyz;
#X obj 543 354 r~ noyz;
#X obj 543 390 *~ 1;
#X obj 470 348 * 3;
#X obj 20 140 *~ 0.5;
#X obj 93 141 *~ 3;
#X obj 165 144 *~ 2;
#X obj 207 121 osc~ 2200;
#X obj 209 171 *~ 0.2;
#X msg 227 270 100 2;
#X msg 291 105 100 30;
#X obj 196 244 r kickoffBang;
#X connect 0 0 10 0;
#X connect 1 0 10 0;
#X connect 4 0 10 0;
#X connect 6 0 10 0;
#X connect 7 0 10 2;
#X connect 8 0 10 1;
#X connect 9 0 12 0;
#X connect 9 0 27 0;
#X connect 10 0 9 0;
#X connect 11 0 10 0;
#X connect 12 0 11 0;
#X connect 12 0 25 0;
#X connect 15 0 33 0;
#X connect 16 0 34 0;
#X connect 17 0 23 0;
#X connect 18 0 16 0;
#X connect 21 0 35 0;
#X connect 22 0 39 0;
#X connect 23 2 18 0;
#X connect 23 3 24 0;
#X connect 24 0 31 1;
#X connect 27 0 32 0;
#X connect 28 0 29 0;
#X connect 30 0 31 0;
#X connect 31 0 14 0;
#X connect 31 0 14 1;
#X connect 32 0 31 1;
#X connect 33 0 28 0;
#X connect 34 0 28 0;
#X connect 35 0 28 0;
#X connect 36 0 37 0;
#X connect 37 0 28 0;
#X connect 38 0 10 0;
#X connect 39 0 10 0;
#X connect 40 0 38 0;
#X restore 250 230 pd playMyBeats;
#X connect 0 0 1 0;
#X connect 1 0 7 0;
#X connect 1 1 3 0;
#X connect 2 0 8 0;
#X connect 3 0 5 0;
#X connect 3 1 4 1;
#X connect 4 0 6 0;
#X connect 4 0 2 1;
#X connect 5 0 4 0;
#X connect 7 0 2 0;
#X connect 8 0 11 0;
#X connect 8 1 16 0;
#X connect 8 1 20 0;
#X connect 9 0 11 1;
#X connect 10 0 14 0;
#X connect 11 0 9 0;
#X connect 11 0 10 0;
#X connect 12 0 13 0;
#X connect 12 0 7 0;
#X connect 13 0 11 0;
#X connect 14 0 12 0;
#X connect 15 0 1 0;
#X connect 17 0 13 0;
#X connect 17 0 18 0;
#X connect 18 0 10 0;
#X connect 19 0 0 0;
#X restore 947 623 pd beatPlayer;
#X text 1071 471 - takes touchBangs;
#X obj 1110 361 r c3_env;
#X obj 1110 382 r this_box_envValue;
#X obj 223 178 r c0_this_box;
#X obj 978 513 r bpm_this_box;
#X text 884 466 SEND;
#X text 883 335 SEND;
#X text 880 623 RECEIVE;
#X text 829 729 RECEIVE AND SEND;
#X obj 978 491 r c0_this_box;
#X obj 366 177 r c3_env;
#X obj 387 202 r this_box_envValue;
#X text 249 530 ONLY RECEIVE FROM MASTER \, TO OBEY THE ORDERS;
#X text 995 702 ONLY THE MASTER WILL RECEIVE AND PROCESS;
#X text 435 548 INCLUDING SELF-ORDERS !!!;
#X msg 71 462 666 124 80 456 668 80 790 0 345 82;
#X text 644 1293 --- the end ---;
#X obj 165 797 s box_playThisBPM;
#X obj 947 597 r box_playThisBPM;
#X text 644 -32 --- the beginning ---;
#X text 938 55 BPM time window;
#X obj 893 6 r this_box;
#X obj 893 32 bng 15 250 50 0 empty empty empty 17 7 0 10 -262144 -1
-1;
#X text 932 78 ENV time window;
#X obj 1143 52 select 666 667 668, f 33;
#X obj 1143 254 s constantinos;
#X obj 893 172 s envPeriod;
#X obj 900 203 s BPMPeriod;
#X obj 879 230 s env_Thresh_number;
#X text 909 102 what percent of the max > avr;
#X text 425 121 SENDING STUFF OUT !;
#X text 187 30 This is where you set general freq of sending messages
;
#X text 1011 231 is Y number reverted;
#X text 886 126 below this number of avr env \, no exec;
#X text 1077 158 fsr scale;
#X obj 861 256 s avr_env_exec_threshold;
#X text 440 1102 beatPlayer is not sent here;
#X text 440 1115 beats can be played whether this box is muted or not
;
#X obj 502 1045 loadbang;
#X obj 590 7 r this_box;
#X obj 348 1179 dac~;
#X obj 165 776 route 667;
#X obj 228 753 r this_box;
#X obj 141 548 route 666;
#X obj 159 32 bng 15 250 50 0 empty empty empty 17 7 0 10 -262144 -1
-1;
#X obj 593 59 r master_box;
#X obj 203 293 pack f f f f f f f f f f f f, f 38;
#X obj 127 574 unpack 1 2 3 4 5 6 7 8 9 10 11, f 35;
#X obj 47 823 print BPM_command_rcvd_in_667;
#X obj 309 690 print ENV_command_rcvd_in_667;
#X obj 203 75 metro 50;
#X obj 338 317 print send_outfrom667;
#N canvas 5 23 640 320 BPMsender 0;
#X obj 89 66 sel 1;
#X text 128 64 receives touch bangs from TK;
#X obj 88 43 r touchBang;
#X floatatom 110 120 5 0 0 0 - - -, f 5;
#X obj 411 107 r this_box;
#X obj 411 137 == 666;
#X obj 411 164 s is_master;
#X text 88 22 for this_box;
#X obj 89 177 s bpm_this_box;
#X obj 224 172 s c0_this_box;
#X floatatom 239 120 5 0 0 0 - - -, f 5;
#N canvas 535 61 541 465 countBangs_outputBPM 0;
#X text 188 50 touch bangs1;
#X obj 148 72 t b b;
#X obj 150 105 f;
#X msg 194 106 1;
#X obj 150 136 select 1;
#X msg 192 80 0;
#X obj 123 178 timer;
#X obj 123 202 t f b f;
#X obj 128 229 f;
#X obj 150 158 bng 15 250 50 0 empty empty empty 17 7 0 10 -262144
-1 -1;
#X obj 128 252 -;
#X obj 128 275 abs;
#X floatatom 100 306 5 0 0 0 - - -, f 5;
#X floatatom 100 372 5 0 0 0 - - -, f 5;
#X obj 100 326 pow -1;
#X obj 100 350 * 60000;
#X text 36 369 bpms here;
#X obj 147 49 inlet;
#X obj 80 62 bng 15 250 50 0 empty empty empty 17 7 0 10 -262144 -1
-1;
#X floatatom 80 82 5 0 0 0 - - -, f 5;
#X text 127 30 note ins;
#X obj 94 413 outlet;
#X obj 248 412 outlet;
#X obj 248 255 t b b f;
#X obj 286 284 + 1;
#X floatatom 248 311 5 0 0 0 - - -, f 5;
#X obj 248 285 i;
#X text 286 310 <<--touchIn counted here;
#X connect 1 0 23 0;
#X connect 1 1 2 0;
#X connect 2 0 3 0;
#X connect 2 0 4 0;
#X connect 3 0 2 1;
#X connect 4 0 9 0;
#X connect 5 0 2 1;
#X connect 6 0 7 0;
#X connect 7 0 8 1;
#X connect 7 1 8 0;
#X connect 7 2 10 1;
#X connect 8 0 10 0;
#X connect 9 0 6 1;
#X connect 10 0 11 0;
#X connect 11 0 12 0;
#X connect 12 0 14 0;
#X connect 13 0 21 0;
#X connect 14 0 15 0;
#X connect 15 0 13 0;
#X connect 17 0 1 0;
#X connect 18 0 1 0;
#X connect 18 0 19 0;
#X connect 23 0 26 0;
#X connect 24 0 26 1;
#X connect 25 0 22 0;
#X connect 26 0 24 0;
#X connect 26 0 25 0;
#X restore 89 93 pd countBangs_outputBPM;
#X connect 0 0 11 0;
#X connect 2 0 0 0;
#X connect 4 0 5 0;
#X connect 5 0 6 0;
#X connect 11 0 3 0;
#X connect 11 0 8 0;
#X connect 11 1 10 0;
#X connect 11 1 9 0;
#X restore 939 467 pd BPMsender;
#X obj 590 31 print this_boxIs:::::::::::::::::::::::::::;
#X obj 591 83 print master_boxIs:::::::::::::::::::::::::;
#N canvas 2 25 1440 808 masterOFpuppets 0;
#X obj 266 135 spigot;
#X obj 382 45 r this_box;
#X obj 452 45 r master_box;
#X obj 382 109 ==;
#X obj 392 76 t b f;
#X obj 303 987 s master_network_out;
#X obj 1292 369 change;
#X floatatom 1286 400 5 0 0 0 - - -, f 5;
#X obj 1291 318 sel 2001;
#X msg 1293 342 2001;
#X obj 1324 399 bng 15 250 50 0 empty empty empty 17 7 0 10 -262144
-1 -1;
#X text 1145 410 sends kickoff BANG;
#X obj 1260 438 s kickoffBang;
#X obj 1264 256 t b f;
#X obj 1291 276 +;
#X floatatom 1291 300 5 0 0 0 - - -, f 5;
#X text 996 -11 KICKOFFBANG;
#X text 1267 228 this works only ONCE;
#X obj 1068 198 change, f 9;
#X msg 1376 79 666;
#X msg 1301 68 667;
#X msg 1342 73 668;
#X msg 1248 65 0;
#X floatatom 1300 107 5 0 0 0 - - -, f 5;
#X obj 1096 143 sel 666 667 668;
#X msg 1098 167 666;
#X msg 1136 167 667;
#X msg 1169 167 668;
#X obj 1132 197 change, f 9;
#X obj 1196 196 change, f 9;
#X obj 1096 48 spigot;
#X obj 1211 -15 r this_box;
#X obj 1096 -55 r IDsForKickoffBang;
#X msg 598 25 667 123 67 456 668 80 789 666 345 82;
#X text 600 7 box c0 bpm c1 box bpm c2 solo c3 env;
#X msg 502 72 666;
#X msg 463 70 666;
#X obj 266 158 route 666 667 668;
#X obj 307 13 s IDsForKickoffBang;
#X text 945 554 40s calculator;
#X text 1119 547 10s calculator;
#X obj 935 667 timer;
#X obj 898 603 bng 15 250 50 0 empty empty empty 17 7 0 10 -262144
-1 -1;
#X obj 1002 655 metro 100;
#X floatatom 935 690 5 0 0 0 - - -, f 5;
#X obj 898 732 sel 1;
#X obj 1002 632 tgl 15 0 empty empty empty 17 7 0 10 -262144 -1 -1
0 1;
#X obj 897 762 t b b b b b b b;
#X obj 934 709 > 40000;
#X text 902 598 resets every 40s after kickoff;
#X obj 898 570 r kickoffBang;
#X obj 1162 697 timer;
#X obj 1127 676 bng 15 250 50 0 empty empty empty 17 7 0 10 -262144
-1 -1;
#X obj 1229 685 metro 100;
#X floatatom 1162 720 5 0 0 0 - - -, f 5;
#X obj 1125 762 sel 1;
#X obj 1229 668 tgl 15 0 empty empty empty 17 7 0 10 -262144 -1 -1
0 1;
#X obj 1124 792 t b b b b b b b;
#X obj 1125 573 r kickoffBang;
#X text 1133 591 resets every 10s after kickoff;
#X obj 1161 739 > 10000;
#X obj 1233 717 r envPeriod;
#X obj 988 686 r BPMPeriod;
#X obj 984 794 s BPMResetBang;
#X obj 1211 821 s envResetBang;
#N canvas 0 22 1241 726 bpmFold 0;
#X obj 149 195 / 2;
#X obj 56 193 f;
#X floatatom 70 237 5 0 0 0 - - -, f 5;
#X obj 240 194 * 2;
#X obj 324 184 / 4;
#X obj 410 177 * 4;
#X obj 487 177 / 8;
#X obj 562 173 * 8;
#X obj 656 175 * 16;
#X obj 96 338 < 160;
#X floatatom 57 361 5 0 0 0 - - -, f 5;
#X floatatom 98 359 5 0 0 0 - - -, f 5;
#X obj 82 402 &&;
#X floatatom 90 464 5 0 0 0 - - -, f 5;
#X obj 56 337 >= 80;
#X floatatom 395 655 5 0 0 0 - - -, f 5;
#X obj 98 497 sel 1;
#X obj 101 542 f;
#X obj 362 100 f;
#X obj 327 57 t b b f;
#X obj 352 29 inlet;
#X obj 402 853 outlet;
#X obj 61 270 t b b f f f;
#X floatatom 167 233 5 0 0 0 - - -, f 5;
#X obj 191 337 < 160;
#X floatatom 152 360 5 0 0 0 - - -, f 5;
#X floatatom 193 358 5 0 0 0 - - -, f 5;
#X obj 175 386 &&;
#X floatatom 185 463 5 0 0 0 - - -, f 5;
#X obj 151 336 >= 80;
#X obj 185 498 sel 1;
#X obj 196 541 f;
#X obj 156 269 t b b f f f;
#X floatatom 243 234 5 0 0 0 - - -, f 5;
#X obj 274 335 < 160;
#X floatatom 235 358 5 0 0 0 - - -, f 5;
#X floatatom 276 356 5 0 0 0 - - -, f 5;
#X obj 258 384 &&;
#X floatatom 268 461 5 0 0 0 - - -, f 5;
#X obj 234 334 >= 80;
#X obj 268 496 sel 1;
#X obj 279 539 f;
#X obj 239 267 t b b f f f;
#X floatatom 328 231 5 0 0 0 - - -, f 5;
#X obj 359 332 < 160;
#X floatatom 320 355 5 0 0 0 - - -, f 5;
#X floatatom 361 353 5 0 0 0 - - -, f 5;
#X obj 343 381 &&;
#X floatatom 353 458 5 0 0 0 - - -, f 5;
#X obj 319 331 >= 80;
#X obj 353 493 sel 1;
#X obj 364 536 f;
#X obj 324 264 t b b f f f;
#X floatatom 412 229 5 0 0 0 - - -, f 5;
#X obj 443 330 < 160;
#X floatatom 404 353 5 0 0 0 - - -, f 5;
#X floatatom 445 351 5 0 0 0 - - -, f 5;
#X obj 427 379 &&;
#X floatatom 437 456 5 0 0 0 - - -, f 5;
#X obj 403 329 >= 80;
#X obj 437 491 sel 1;
#X obj 448 534 f;
#X obj 408 262 t b b f f f;
#X floatatom 495 227 5 0 0 0 - - -, f 5;
#X obj 526 328 < 160;
#X floatatom 487 351 5 0 0 0 - - -, f 5;
#X floatatom 528 349 5 0 0 0 - - -, f 5;
#X obj 510 377 &&;
#X floatatom 520 454 5 0 0 0 - - -, f 5;
#X obj 486 327 >= 80;
#X obj 520 489 sel 1;
#X obj 531 532 f;
#X obj 491 260 t b b f f f;
#X floatatom 580 224 5 0 0 0 - - -, f 5;
#X obj 611 325 < 160;
#X floatatom 572 348 5 0 0 0 - - -, f 5;
#X floatatom 613 346 5 0 0 0 - - -, f 5;
#X obj 595 374 &&;
#X floatatom 605 451 5 0 0 0 - - -, f 5;
#X obj 571 324 >= 80;
#X obj 605 486 sel 1;
#X obj 616 529 f;
#X obj 576 257 t b b f f f;
#X floatatom 661 224 5 0 0 0 - - -, f 5;
#X obj 692 325 < 160;
#X floatatom 653 348 5 0 0 0 - - -, f 5;
#X floatatom 694 346 5 0 0 0 - - -, f 5;
#X obj 676 374 &&;
#X floatatom 686 451 5 0 0 0 - - -, f 5;
#X obj 652 324 >= 80;
#X obj 686 486 sel 1;
#X obj 697 529 f;
#X obj 657 257 t b b f f f;
#X obj 293 719 < 80;
#X obj 330 719 >= 160;
#X obj 312 768 sel 1;
#X msg 309 792 80;
#X obj 315 746 ||;
#X obj 410 828 f;
#X obj 376 674 t b f f f;
#X connect 0 0 32 0;
#X connect 0 0 23 0;
#X connect 1 0 2 0;
#X connect 1 0 22 0;
#X connect 3 0 42 0;
#X connect 3 0 33 0;
#X connect 4 0 52 0;
#X connect 4 0 43 0;
#X connect 5 0 62 0;
#X connect 5 0 53 0;
#X connect 6 0 72 0;
#X connect 6 0 63 0;
#X connect 7 0 82 0;
#X connect 7 0 73 0;
#X connect 8 0 92 0;
#X connect 8 0 83 0;
#X connect 9 0 11 0;
#X connect 10 0 12 0;
#X connect 11 0 12 1;
#X connect 12 0 13 0;
#X connect 13 0 16 0;
#X connect 14 0 10 0;
#X connect 15 0 99 0;
#X connect 16 0 17 0;
#X connect 17 0 15 0;
#X connect 18 0 1 0;
#X connect 18 0 0 0;
#X connect 18 0 3 0;
#X connect 18 0 4 0;
#X connect 18 0 5 0;
#X connect 18 0 6 0;
#X connect 18 0 7 0;
#X connect 18 0 8 0;
#X connect 19 2 18 0;
#X connect 20 0 19 0;
#X connect 22 2 14 0;
#X connect 22 3 9 0;
#X connect 22 4 17 1;
#X connect 24 0 26 0;
#X connect 25 0 27 0;
#X connect 26 0 27 1;
#X connect 27 0 28 0;
#X connect 28 0 30 0;
#X connect 29 0 25 0;
#X connect 30 0 31 0;
#X connect 31 0 15 0;
#X connect 32 2 29 0;
#X connect 32 3 24 0;
#X connect 32 4 31 1;
#X connect 34 0 36 0;
#X connect 35 0 37 0;
#X connect 36 0 37 1;
#X connect 37 0 38 0;
#X connect 38 0 40 0;
#X connect 39 0 35 0;
#X connect 40 0 41 0;
#X connect 41 0 15 0;
#X connect 42 2 39 0;
#X connect 42 3 34 0;
#X connect 42 4 41 1;
#X connect 44 0 46 0;
#X connect 45 0 47 0;
#X connect 46 0 47 1;
#X connect 47 0 48 0;
#X connect 48 0 50 0;
#X connect 49 0 45 0;
#X connect 50 0 51 0;
#X connect 51 0 15 0;
#X connect 52 2 49 0;
#X connect 52 3 44 0;
#X connect 52 4 51 1;
#X connect 54 0 56 0;
#X connect 55 0 57 0;
#X connect 56 0 57 1;
#X connect 57 0 58 0;
#X connect 58 0 60 0;
#X connect 59 0 55 0;
#X connect 60 0 61 0;
#X connect 61 0 15 0;
#X connect 62 2 59 0;
#X connect 62 3 54 0;
#X connect 62 4 61 1;
#X connect 64 0 66 0;
#X connect 65 0 67 0;
#X connect 66 0 67 1;
#X connect 67 0 68 0;
#X connect 68 0 70 0;
#X connect 69 0 65 0;
#X connect 70 0 71 0;
#X connect 71 0 15 0;
#X connect 72 2 69 0;
#X connect 72 3 64 0;
#X connect 72 4 71 1;
#X connect 74 0 76 0;
#X connect 75 0 77 0;
#X connect 76 0 77 1;
#X connect 77 0 78 0;
#X connect 78 0 80 0;
#X connect 79 0 75 0;
#X connect 80 0 81 0;
#X connect 81 0 15 0;
#X connect 82 2 79 0;
#X connect 82 3 74 0;
#X connect 82 4 81 1;
#X connect 84 0 86 0;
#X connect 85 0 87 0;
#X connect 86 0 87 1;
#X connect 87 0 88 0;
#X connect 88 0 90 0;
#X connect 89 0 85 0;
#X connect 90 0 91 0;
#X connect 91 0 15 0;
#X connect 92 2 89 0;
#X connect 92 3 84 0;
#X connect 92 4 91 1;
#X connect 93 0 97 0;
#X connect 94 0 97 1;
#X connect 95 0 96 0;
#X connect 96 0 98 1;
#X connect 97 0 95 0;
#X connect 98 0 21 0;
#X connect 99 0 98 0;
#X connect 99 1 93 0;
#X connect 99 2 94 0;
#X connect 99 3 98 1;
#X restore 251 561 pd bpmFold;
#X floatatom 189 626 5 0 0 0 - - -, f 5;
#X obj 189 647 + 665;
#X obj 251 360 f;
#X obj 275 389 f;
#X obj 300 412 f;
#X obj 955 832 s BPMSum_AveragingBang;
#X obj 1182 850 s envSum_AveragingBang;
#X obj 108 228 r BPMSum_AveragingBang;
#X obj 275 472 +;
#X obj 251 504 +;
#X obj 251 527 / 3;
#X floatatom 463 383 5 0 0 0 - - -, f 5;
#X floatatom 413 360 5 0 0 0 - - -, f 5;
#X floatatom 378 331 5 0 0 0 - - -, f 5;
#X obj 303 943 pack f f f f f;
#X obj 79 659 + 1;
#X floatatom 35 686 5 0 0 0 - - -, f 5;
#X obj 16 633 t b b f;
#X obj 35 660 i;
#X obj 121 664 t b b;
#X msg 134 697 0;
#X obj 118 734 i;
#X obj 16 606 bng 15 250 50 0 empty empty empty 17 7 0 10 -262144 -1
-1;
#X floatatom 118 757 5 0 0 0 - - -, f 5;
#X text 43 607 BPM EXEC COUNTER;
#X text 754 1086 - - -;
#X obj 136 817 i;
#X obj 174 817 i;
#X obj 237 817 f;
#X obj 134 640 bng 15 250 50 0 empty empty empty 17 7 0 10 -262144
-1 -1;
#X obj 1213 763 bng 15 250 50 0 empty empty empty 17 7 0 10 -262144
-1 -1;
#X floatatom 568 626 5 0 0 0 - - -, f 5;
#X obj 608 360 f;
#X obj 632 389 f;
#X obj 657 412 f;
#X obj 632 472 +;
#X obj 608 504 +;
#X obj 608 527 / 3;
#X floatatom 743 361 5 0 0 0 - - -, f 5;
#X floatatom 693 340 5 0 0 0 - - -, f 5;
#X floatatom 658 311 5 0 0 0 - - -, f 5;
#X msg 688 412 40, f 14;
#X obj 435 662 + 1;
#X floatatom 391 689 5 0 0 0 - - -, f 5;
#X obj 372 636 t b b f;
#X obj 391 663 i;
#X obj 477 667 t b b;
#X msg 490 700 0;
#X obj 474 737 i;
#X obj 374 607 bng 15 250 50 0 empty empty empty 17 7 0 10 -262144
-1 -1;
#X floatatom 476 757 5 0 0 0 - - -, f 5;
#X obj 491 785 i;
#X obj 554 800 i;
#X obj 490 643 bng 15 250 50 0 empty empty empty 17 7 0 10 -262144
-1 -1;
#X text 399 610 ENV EXEC COUNTER;
#X obj 68 226 bng 15 250 50 0 empty empty empty 17 7 0 10 -262144 -1
-1;
#X floatatom 274 600 5 0 0 0 - - -, f 5;
#X msg 322 439 79, f 14;
#X obj 108 251 t b b b b b b b b b b, f 25;
#X obj 372 531 r kickoffBang;
#X obj 16 502 r kickoffBang;
#N canvas 11 39 746 764 pick_BPM_Play 0;
#X text 308 65 if avr is closest to BPM1 \, play from 1;
#X text 307 80 if avr is closest to BPM2 \, play from 2;
#X text 305 95 if avr is closest to BPM2 \, play from 3;
#X obj 255 318 -;
#X obj 303 318 -;
#X obj 355 316 -;
#X obj 257 343 abs;
#X obj 306 344 abs;
#X obj 354 344 abs;
#X obj 261 384 min;
#X obj 350 382 min;
#X obj 303 385 min;
#X obj 277 418 min;
#X obj 330 419 min;
#X obj 303 448 min;
#X floatatom 303 480 5 0 0 0 - - -, f 5;
#X floatatom 403 363 5 0 0 0 - - -, f 5;
#X floatatom 234 366 5 0 0 0 - - -, f 5;
#X floatatom 306 365 5 0 0 0 - - -, f 5;
#X obj 238 512 +;
#X obj 278 511 -;
#X floatatom 170 561 5 0 0 0 - - -, f 5;
#X floatatom 281 557 5 0 0 0 - - -, f 5;
#X obj 239 534 abs;
#X obj 276 534 abs;
#X obj 159 611 ==;
#X obj 210 611 ==;
#X obj 184 611 ==;
#X obj 261 611 ==;
#X obj 312 611 ==;
#X obj 286 611 ==;
#X floatatom 452 196 5 0 0 0 - - -, f 5;
#X floatatom 516 188 5 0 0 0 - - -, f 5;
#X floatatom 383 192 5 0 0 0 - - -, f 5;
#X floatatom 301 185 5 0 0 0 - - -, f 5;
#X floatatom 145 648 5 0 0 0 - - -, f 5;
#X floatatom 185 648 5 0 0 0 - - -, f 5;
#X floatatom 230 651 5 0 0 0 - - -, f 5;
#X floatatom 289 650 5 0 0 0 - - -, f 5;
#X floatatom 337 649 5 0 0 0 - - -, f 5;
#X floatatom 382 646 5 0 0 0 - - -, f 5;
#X obj 521 156 inlet;
#X obj 455 162 inlet;
#X obj 379 162 inlet;
#X obj 298 158 inlet;
#X obj 144 669 sel 1;
#X obj 183 669 sel 1;
#X obj 229 671 sel 1;
#X obj 294 671 sel 1;
#X obj 333 671 sel 1;
#X obj 379 673 sel 1;
#X msg 144 691 1;
#X msg 183 691 2;
#X msg 229 693 3;
#X msg 294 693 1;
#X msg 333 693 2;
#X msg 379 695 3;
#X obj 273 734 f;
#X obj 274 758 outlet;
#X obj 46 64 bng 15 250 50 0 empty empty empty 17 7 0 10 -262144 -1
-1;
#X obj 45 38 inlet;
#X obj 80 119 t b b b b b b b b b b b b, f 26;
#X connect 3 0 6 0;
#X connect 4 0 7 0;
#X connect 5 0 8 0;
#X connect 6 0 9 0;
#X connect 6 0 11 0;
#X connect 6 0 17 0;
#X connect 7 0 10 0;
#X connect 7 0 9 1;
#X connect 7 0 18 0;
#X connect 8 0 10 1;
#X connect 8 0 11 1;
#X connect 8 0 16 0;
#X connect 9 0 12 0;
#X connect 10 0 13 1;
#X connect 11 0 12 1;
#X connect 11 0 13 0;
#X connect 12 0 14 0;
#X connect 13 0 14 1;
#X connect 14 0 15 0;
#X connect 15 0 20 0;
#X connect 15 0 19 0;
#X connect 19 0 23 0;
#X connect 20 0 24 0;
#X connect 21 0 26 0;
#X connect 21 0 27 0;
#X connect 21 0 25 0;
#X connect 22 0 29 0;
#X connect 22 0 30 0;
#X connect 22 0 28 0;
#X connect 23 0 21 0;
#X connect 24 0 22 0;
#X connect 25 0 35 0;
#X connect 26 0 37 0;
#X connect 27 0 36 0;
#X connect 28 0 38 0;
#X connect 29 0 40 0;
#X connect 30 0 39 0;
#X connect 31 0 4 1;
#X connect 31 0 30 1;
#X connect 31 0 27 1;
#X connect 32 0 5 1;
#X connect 32 0 29 1;
#X connect 32 0 26 1;
#X connect 33 0 3 1;
#X connect 33 0 28 1;
#X connect 33 0 25 1;
#X connect 34 0 5 0;
#X connect 34 0 4 0;
#X connect 34 0 3 0;
#X connect 34 0 20 1;
#X connect 34 0 19 1;
#X connect 35 0 45 0;
#X connect 36 0 46 0;
#X connect 37 0 47 0;
#X connect 38 0 48 0;
#X connect 39 0 49 0;
#X connect 40 0 50 0;
#X connect 41 0 32 0;
#X connect 42 0 31 0;
#X connect 43 0 33 0;
#X connect 44 0 34 0;
#X connect 45 0 51 0;
#X connect 46 0 52 0;
#X connect 47 0 53 0;
#X connect 48 0 54 0;
#X connect 49 0 55 0;
#X connect 50 0 56 0;
#X connect 51 0 57 1;
#X connect 52 0 57 1;
#X connect 53 0 57 1;
#X connect 54 0 57 1;
#X connect 55 0 57 1;
#X connect 56 0 57 1;
#X connect 57 0 58 0;
#X connect 59 0 61 0;
#X connect 60 0 59 0;
#X connect 61 1 57 0;
#X connect 61 2 14 0;
#X connect 61 3 12 0;
#X connect 61 4 13 0;
#X connect 61 5 9 0;
#X connect 61 6 13 0;
#X connect 61 7 10 0;
#X connect 61 8 34 0;
#X connect 61 9 33 0;
#X connect 61 10 31 0;
#X connect 61 11 32 0;
#X restore 117 558 pd pick_BPM_Play;
#X obj 449 229 bng 15 250 50 0 empty empty empty 17 7 0 10 -262144
-1 -1;
#X obj 489 254 t b b b b b b b b b b, f 25;
#X obj 489 231 r envSum_AveragingBang;
#X text 583 800 these are updated every 10s;
#X text 591 559 takes:;
#X text 595 574 bang avr env1 env2 env3;
#X text 619 590 sends soloist boxnumber;
#X text 619 607 doesn't send if the avr env is below \$1;
#X text 263 197 these sum the numbers and output them with resetBangs
;
#N canvas 176 32 822 762 pick_env_Play 0;
#X obj 561 108 inlet;
#X obj 475 108 inlet;
#X obj 399 108 inlet;
#X obj 336 109 inlet;
#X obj 46 64 bng 15 250 50 0 empty empty empty 17 7 0 10 -262144 -1
-1;
#X obj 45 38 inlet;
#X obj 80 119 t b b b b b b b b b b b b, f 26;
#X obj 316 189 f;
#X obj 379 188 f;
#X obj 455 188 f;
#X obj 541 188 f;
#X obj 498 220 max;
#X obj 424 257 max;
#X obj 408 326 ==;
#X obj 459 326 ==;
#X obj 433 326 ==;
#X floatatom 394 363 5 0 0 0 - - -, f 5;
#X floatatom 434 363 5 0 0 0 - - -, f 5;
#X floatatom 479 366 5 0 0 0 - - -, f 5;
#X obj 393 384 sel 1;
#X obj 432 384 sel 1;
#X obj 478 386 sel 1;
#X msg 393 406 1;
#X msg 432 406 2;
#X msg 478 408 3;
#X obj 423 286 f;
#X floatatom 411 77 5 0 0 0 - - -, f 5;
#X floatatom 468 78 5 0 0 0 - - -, f 5;
#X floatatom 562 79 5 0 0 0 - - -, f 5;
#X obj 438 446 f;
#X floatatom 438 493 5 0 0 0 - - -, f 5;
#X text 454 290 loudest one;
#X text 478 492 ID of the loudest one;
#X obj 438 469 + 665;
#X obj 16 336 * 0.9;
#X obj 25 236 f;
#X msg 60 235 100;
#X obj 60 213 loadbang;
#X obj 43 267 -;
#X obj 43 288 abs;
#X obj 43 308 / 100;
#X floatatom 69 333 5 0 0 0 - - -, f 5;
#X obj 25 192 r env_Thresh_number;
#X floatatom 24 389 5 0 0 0 - - -, f 5;
#X obj 170 440 spigot;
#X floatatom 242 394 5 0 0 0 - - -, f 5;
#X floatatom 341 338 5 0 0 0 - - -, f 5;
#X obj 228 361 <;
#X obj 170 418 f;
#X obj 170 540 *;
#X obj 211 468 i, f 5;
#X obj 156 470 f;
#X text 308 110 avr;
#X text 418 125 666;
#X text 500 126 667;
#X text 587 127 668;
#X obj 190 608 spigot;
#X obj 206 724 outlet;
#X obj 259 582 >;
#X floatatom 312 561 5 0 0 0 - - -, f 5;
#X floatatom 303 604 5 0 0 0 - - -, f 5;
#X floatatom 131 584 5 0 0 0 - - -, f 5;
#X obj 277 539 r avr_env_exec_threshold;
#X obj 175 641 f;
#X obj 243 643 i;
#X obj 207 672 *;
#X floatatom 268 697 5 0 0 0 - - -, f 5;
#X msg 348 70 110;
#X obj 530 538 s max_env_ID;
#X obj 532 567 s 90perOfMax;
#X obj 509 660 s is_AVRenv_exec_threshold;
#X connect 0 0 10 1;
#X connect 1 0 9 1;
#X connect 2 0 8 1;
#X connect 3 0 7 1;
#X connect 4 0 6 0;
#X connect 5 0 4 0;
#X connect 6 1 63 0;
#X connect 6 2 64 0;
#X connect 6 3 51 0;
#X connect 6 4 48 0;
#X connect 6 5 50 0;
#X connect 6 6 7 0;
#X connect 6 7 25 0;
#X connect 6 8 8 0;
#X connect 6 9 9 0;
#X connect 6 10 10 0;
#X connect 7 0 47 0;
#X connect 7 0 58 0;
#X connect 8 0 12 0;
#X connect 8 0 13 1;
#X connect 9 0 11 0;
#X connect 9 0 15 1;
#X connect 10 0 11 1;
#X connect 10 0 14 1;
#X connect 11 0 12 1;
#X connect 12 0 25 1;
#X connect 13 0 16 0;
#X connect 14 0 18 0;
#X connect 15 0 17 0;
#X connect 16 0 19 0;
#X connect 17 0 20 0;
#X connect 18 0 21 0;
#X connect 19 0 22 0;
#X connect 20 0 23 0;
#X connect 21 0 24 0;
#X connect 22 0 29 0;
#X connect 23 0 29 0;
#X connect 24 0 29 0;
#X connect 25 0 14 0;
#X connect 25 0 15 0;
#X connect 25 0 13 0;
#X connect 25 0 34 0;
#X connect 25 0 46 0;
#X connect 26 0 8 1;
#X connect 27 0 9 1;
#X connect 28 0 10 1;
#X connect 29 0 33 0;
#X connect 33 0 30 0;
#X connect 33 0 48 1;
#X connect 33 0 68 0;
#X connect 34 0 43 0;
#X connect 34 0 47 1;
#X connect 34 0 69 0;
#X connect 35 0 38 0;
#X connect 36 0 38 1;
#X connect 37 0 36 0;
#X connect 38 0 39 0;
#X connect 39 0 40 0;
#X connect 40 0 41 0;
#X connect 40 0 34 1;
#X connect 42 0 35 0;
#X connect 44 0 51 1;
#X connect 47 0 44 1;
#X connect 47 0 45 0;
#X connect 47 0 50 1;
#X connect 48 0 44 0;
#X connect 49 0 56 0;
#X connect 49 0 61 0;
#X connect 50 0 49 1;
#X connect 51 0 49 0;
#X connect 56 0 63 1;
#X connect 58 0 56 1;
#X connect 58 0 60 0;
#X connect 58 0 64 1;
#X connect 58 0 70 0;
#X connect 59 0 58 1;
#X connect 62 0 58 1;
#X connect 63 0 65 0;
#X connect 64 0 65 1;
#X connect 65 0 57 0;
#X connect 65 0 66 0;
#X connect 67 0 7 1;
#X restore 483 560 pd pick_env_Play;
#X text 20 820 updated every 40;
#X obj 1096 102 unpack f;
#X obj 836 974 print BPMResetBang;
#X obj 805 998 print BPMSum_AveragingBang;
#X obj 1026 970 print envResetBang;
#X obj 975 992 print envSum_AveragingBang;
#X obj 479 162 print spigotMasterCheck1;
#X obj 1211 33 print spigotMasterCheck2;
#X obj 266 -29 r receiveNetworkIN;
#X text 95 935 Sending master NW out when \,;
#X text 11 954 BPMSum_AveragingBang or envSum_AveragingBang;
#X text 212 976 arrives!!!;
#X text 19 996 Bec \, there is no need to send it every 50 ms;
#X obj 496 1017 print master_network_COMMAND_ouT_from_667;
#X obj 631 970 print avr_env_from667;
#X obj 699 839 r max_env_ID;
#X obj 699 860 print max_env_from667;
#X obj 672 481 print env_avrof666;
#X obj 695 508 print env_avrof667;
#X obj 715 537 print env_avrof668;
#X obj 493 858 sel 0;
#X obj 530 913 i;
#X obj 449 914 i;
#X obj 445 839 t b b;
#X text 313 807 at 1:20 \, 2:00 \, 2 \, 2:40...;
#X text 314 821 (everytime when the beatsRule is activated);
#X text 314 794 the solo number will be 0;
#X msg 520 879 -3;
#X obj 685 883 r 90perOfMax;
#X obj 685 908 print 90perOfMax;
#X obj 664 928 r is_AVRenv_exec_threshold;
#X obj 662 949 print is_AVRenv_exec_threshold;
#X obj 226 665 print bpm_playbox;
#X obj 110 585 print bpm_AVRG;
#X obj 12 414 print bpm_avrof666;
#X obj 35 441 print bpm_avrof667;
#X obj 55 464 print bpm_avrof668;
#N canvas 0 23 935 447 CALCULATOR666 0;
#N canvas 523 139 575 630 BPMcalculations 0;
#X obj 64 72 inlet;
#X obj 64 99 unpack f f;
#X obj 121 317 t b f;
#X obj 104 367 +;
#X floatatom 154 361 5 0 0 0 - - -, f 5;
#X obj 274 217 + 1;
#X floatatom 217 244 5 0 0 0 - - -, f 5;
#X obj 217 218 i;
#X text 105 387 sum here;
#X text 254 238 number of notes counted here;
#X obj 198 424 f;
#X floatatom 201 452 5 0 0 0 - - -, f 5;
#X msg 242 389 0;
#X obj 361 262 t b b;
#X obj 302 333 i;
#X floatatom 300 369 5 0 0 0 - - -, f 5;
#X obj 285 487 /;
#X obj 285 524 outlet;
#X obj 200 349 t b b b;
#X floatatom 339 510 5 0 0 0 - - -, f 5;
#X obj 263 139 t b b;
#X obj 236 123 bng 15 250 50 0 empty empty empty 17 7 0 10 -262144
-1 -1;
#X obj 263 71 r BPMResetBang;
#X msg 318 296 1;
#X text 127 86 bpms;
#X text 39 88 c0, f 3;
#X obj 198 189 t b f;
#X obj 121 208 change;
#X obj 34 486 print Reserbpm_sumof666;
#X obj 27 516 print Resetbpm_sumDividerof666;
#X connect 0 0 1 0;
#X connect 1 0 26 0;
#X connect 1 1 27 0;
#X connect 2 1 3 0;
#X connect 3 0 4 0;
#X connect 4 0 3 1;
#X connect 4 0 10 1;
#X connect 5 0 7 1;
#X connect 6 0 14 1;
#X connect 7 0 5 0;
#X connect 7 0 6 0;
#X connect 10 0 11 0;
#X connect 10 0 28 0;
#X connect 11 0 16 0;
#X connect 12 0 10 1;
#X connect 12 0 4 0;
#X connect 13 0 23 0;
#X connect 13 1 14 0;
#X connect 14 0 15 0;
#X connect 15 0 16 1;
#X connect 15 0 29 0;
#X connect 16 0 17 0;
#X connect 16 0 19 0;
#X connect 18 1 12 0;
#X connect 18 2 10 0;
#X connect 20 0 18 0;
#X connect 20 1 13 0;
#X connect 21 0 20 0;
#X connect 22 0 20 0;
#X connect 23 0 14 1;
#X connect 23 0 6 0;
#X connect 23 0 7 1;
#X connect 26 0 7 0;
#X connect 27 0 2 0;
#X restore 38 228 pd BPMcalculations;
#X obj 65 21 inlet;
#X text 148 83 5;
#X text 248 83 10;
#X obj 40 173 change;
#X obj 40 196 pack f f;
#X msg 575 28 667 123 67 456 668 80 789 666 345 82;
#X text 577 10 box c0 bpm c1 box bpm c2 solo c3 env;
#X obj 210 171 change;
#X obj 210 194 pack f f;
#N canvas 0 22 775 583 ENVcalculations 0;
#X obj 146 66 inlet;
#X obj 146 93 unpack f f;
#X obj 203 311 t b f;
#X obj 186 361 +;
#X floatatom 228 363 5 0 0 0 - - -, f 5;
#X obj 343 211 + 1;
#X floatatom 299 238 5 0 0 0 - - -, f 5;
#X floatatom 203 243 5 0 0 0 - - -, f 5;
#X obj 280 185 t b b f;
#X obj 299 212 i;
#X text 339 237 number of notes counted here;
#X obj 280 418 f;
#X floatatom 283 446 5 0 0 0 - - -, f 5;
#X msg 324 383 0;
#X obj 372 262 t b b;
#X obj 384 327 i;
#X floatatom 382 363 5 0 0 0 - - -, f 5;
#X obj 367 481 /;
#X obj 367 518 outlet;
#X obj 282 343 t b b b;
#X floatatom 421 504 5 0 0 0 - - -, f 5;
#X obj 345 133 t b b;
#X obj 318 117 bng 15 250 50 0 empty empty empty 17 7 0 10 -262144
-1 -1;
#X text 98 241 envs sum here;
#X text 193 391 sum here;
#X obj 345 65 r envResetBang;
#X msg 400 290 1;
#X text 383 133 use c3 only as a source of bang!;
#X connect 0 0 1 0;
#X connect 1 0 8 0;
#X connect 1 1 7 0;
#X connect 2 1 3 0;
#X connect 3 0 4 0;
#X connect 4 0 3 1;
#X connect 4 0 11 1;
#X connect 5 0 9 1;
#X connect 6 0 15 1;
#X connect 7 0 2 0;
#X connect 8 1 9 0;
#X connect 9 0 5 0;
#X connect 9 0 6 0;
#X connect 11 0 12 0;
#X connect 12 0 17 0;
#X connect 13 0 11 1;
#X connect 13 0 4 0;
#X connect 14 0 26 0;
#X connect 14 1 15 0;
#X connect 15 0 16 0;
#X connect 16 0 17 1;
#X connect 17 0 18 0;
#X connect 17 0 20 0;
#X connect 19 1 13 0;
#X connect 19 2 11 0;
#X connect 21 0 19 0;
#X connect 21 1 14 0;
#X connect 22 0 21 0;
#X connect 25 0 21 0;
#X connect 26 0 15 1;
#X connect 26 0 6 0;
#X connect 26 0 9 1;
#X restore 208 226 pd ENVcalculations;
#X obj 38 280 outlet;
#X obj 208 278 outlet, f 60;
#X obj 65 64 unpack 1 2 3 4 5 6 7 8 9 10 11, f 35;
#X connect 0 0 11 0;
#X connect 1 0 13 0;
#X connect 4 0 5 0;
#X connect 5 0 0 0;
#X connect 8 0 9 0;
#X connect 9 0 10 0;
#X connect 10 0 12 0;
#X connect 13 0 4 0;
#X connect 13 1 5 1;
#X connect 13 7 8 0;
#X connect 13 8 9 1;
#X restore 266 213 pd CALCULATOR666;
#N canvas 0 23 935 447 CALCULATOR667 0;
#N canvas 0 22 575 630 BPMcalculations 0;
#X obj 64 72 inlet;
#X obj 64 99 unpack f f;
#X obj 121 317 t b f;
#X obj 104 367 +;
#X floatatom 146 369 5 0 0 0 - - -, f 5;
#X obj 263 218 + 1;
#X floatatom 217 244 5 0 0 0 - - -, f 5;
#X floatatom 121 249 5 0 0 0 - - -, f 5;
#X obj 198 191 t b b f;
#X obj 217 218 i;
#X text 105 387 sum here;
#X text 57 246 bpms here;
#X text 257 243 number of notes counted here;
#X obj 198 424 f;
#X floatatom 201 452 5 0 0 0 - - -, f 5;
#X msg 242 389 0;
#X obj 290 268 t b b;
#X obj 302 333 i;
#X floatatom 300 369 5 0 0 0 - - -, f 5;
#X obj 285 487 /;
#X obj 285 524 outlet;
#X obj 200 349 t b b b;
#X floatatom 339 510 5 0 0 0 - - -, f 5;
#X obj 263 139 t b b;
#X obj 236 123 bng 15 250 50 0 empty empty empty 17 7 0 10 -262144
-1 -1;
#X obj 263 71 r BPMResetBang;
#X msg 318 296 1;
#X obj 197 163 bng 15 250 50 0 empty empty empty 17 7 0 10 -262144
-1 -1;
#X obj 21 565 print Reserbpm_sumof667;
#X obj 24 591 print Resetbpm_sumDividerof667;
#X connect 0 0 1 0;
#X connect 1 0 8 0;
#X connect 1 1 7 0;
#X connect 2 1 3 0;
#X connect 3 0 4 0;
#X connect 4 0 3 1;
#X connect 4 0 13 1;
#X connect 5 0 9 1;
#X connect 6 0 17 1;
#X connect 7 0 2 0;
#X connect 8 1 9 0;
#X connect 9 0 5 0;
#X connect 9 0 6 0;
#X connect 13 0 14 0;
#X connect 14 0 19 0;
#X connect 14 0 28 0;
#X connect 15 0 13 1;
#X connect 15 0 4 0;
#X connect 16 0 26 0;
#X connect 16 1 17 0;
#X connect 17 0 18 0;
#X connect 18 0 19 1;
#X connect 18 0 29 0;
#X connect 19 0 20 0;
#X connect 19 0 22 0;
#X connect 21 1 15 0;
#X connect 21 2 13 0;
#X connect 23 0 21 0;
#X connect 23 1 16 0;
#X connect 24 0 23 0;
#X connect 25 0 23 0;
#X connect 26 0 17 1;
#X connect 26 0 6 0;
#X connect 26 0 9 1;
#X connect 27 0 8 0;
#X restore 38 228 pd BPMcalculations;
#X obj 65 21 inlet;
#X text 148 83 5;
#X text 248 83 10;
#X obj 40 173 change;
#X obj 40 196 pack f f;
#X msg 575 28 667 123 67 456 668 80 789 666 345 82;
#X text 577 10 box c0 bpm c1 box bpm c2 solo c3 env;
#X obj 210 171 change;
#X obj 210 194 pack f f;
#N canvas 0 22 775 583 ENVcalculations 0;
#X obj 146 66 inlet;
#X obj 146 93 unpack f f;
#X obj 203 311 t b f;
#X obj 186 361 +;
#X floatatom 228 363 5 0 0 0 - - -, f 5;
#X obj 343 211 + 1;
#X floatatom 299 238 5 0 0 0 - - -, f 5;
#X floatatom 203 243 5 0 0 0 - - -, f 5;
#X obj 280 185 t b b f;
#X obj 299 212 i;
#X text 339 237 number of notes counted here;
#X obj 280 418 f;
#X floatatom 283 446 5 0 0 0 - - -, f 5;
#X msg 324 383 0;
#X obj 372 262 t b b;
#X obj 384 327 i;
#X floatatom 382 363 5 0 0 0 - - -, f 5;
#X obj 367 481 /;
#X obj 367 518 outlet;
#X obj 282 343 t b b b;
#X floatatom 421 504 5 0 0 0 - - -, f 5;
#X obj 345 133 t b b;
#X obj 318 117 bng 15 250 50 0 empty empty empty 17 7 0 10 -262144
-1 -1;
#X text 98 241 envs sum here;
#X text 193 391 sum here;
#X obj 345 65 r envResetBang;
#X msg 400 290 1;
#X text 383 133 use c3 only as a source of bang!;
#X connect 0 0 1 0;
#X connect 1 0 8 0;
#X connect 1 1 7 0;
#X connect 2 1 3 0;
#X connect 3 0 4 0;
#X connect 4 0 3 1;
#X connect 4 0 11 1;
#X connect 5 0 9 1;
#X connect 6 0 15 1;
#X connect 7 0 2 0;
#X connect 8 1 9 0;
#X connect 9 0 5 0;
#X connect 9 0 6 0;
#X connect 11 0 12 0;
#X connect 12 0 17 0;
#X connect 13 0 11 1;
#X connect 13 0 4 0;
#X connect 14 0 26 0;
#X connect 14 1 15 0;
#X connect 15 0 16 0;
#X connect 16 0 17 1;
#X connect 17 0 18 0;
#X connect 17 0 20 0;
#X connect 19 1 13 0;
#X connect 19 2 11 0;
#X connect 21 0 19 0;
#X connect 21 1 14 0;
#X connect 22 0 21 0;
#X connect 25 0 21 0;
#X connect 26 0 15 1;
#X connect 26 0 6 0;
#X connect 26 0 9 1;
#X restore 208 226 pd ENVcalculations;
#X obj 38 280 outlet;
#X obj 208 278 outlet, f 60;
#X obj 65 64 unpack 1 2 3 4 5 6 7 8 9 10 11, f 35;
#X connect 0 0 11 0;
#X connect 1 0 13 0;
#X connect 4 0 5 0;
#X connect 5 0 0 0;
#X connect 8 0 9 0;
#X connect 9 0 10 0;
#X connect 10 0 12 0;
#X connect 13 0 4 0;
#X connect 13 1 5 1;
#X connect 13 7 8 0;
#X connect 13 8 9 1;
#X restore 290 237 pd CALCULATOR667;
#N canvas 0 23 935 447 CALCULATOR668 0;
#N canvas 0 22 575 630 BPMcalculations 0;
#X obj 64 72 inlet;
#X obj 64 99 unpack f f;
#X obj 121 317 t b f;
#X obj 104 367 +;
#X floatatom 146 369 5 0 0 0 - - -, f 5;
#X obj 261 217 + 1;
#X floatatom 217 244 5 0 0 0 - - -, f 5;
#X floatatom 121 249 5 0 0 0 - - -, f 5;
#X obj 198 191 t b b f;
#X obj 217 218 i;
#X text 105 387 sum here;
#X text 57 246 bpms here;
#X text 257 243 number of notes counted here;
#X obj 198 424 f;
#X floatatom 201 452 5 0 0 0 - - -, f 5;
#X msg 242 389 0;
#X obj 290 268 t b b;
#X obj 302 333 i;
#X floatatom 300 369 5 0 0 0 - - -, f 5;
#X obj 285 487 /;
#X obj 285 524 outlet;
#X obj 200 349 t b b b;
#X floatatom 339 510 5 0 0 0 - - -, f 5;
#X obj 263 139 t b b;
#X obj 236 123 bng 15 250 50 0 empty empty empty 17 7 0 10 -262144
-1 -1;
#X obj 263 71 r BPMResetBang;
#X msg 318 296 1;
#X obj 34 486 print Reserbpm_sumof668;
#X obj 38 515 print Resetbpm_sumDividerof668;
#X connect 0 0 1 0;
#X connect 1 0 8 0;
#X connect 1 1 7 0;
#X connect 2 1 3 0;
#X connect 3 0 4 0;
#X connect 4 0 3 1;
#X connect 4 0 13 1;
#X connect 5 0 9 1;
#X connect 6 0 17 1;
#X connect 7 0 2 0;
#X connect 8 1 9 0;
#X connect 9 0 5 0;
#X connect 9 0 6 0;
#X connect 13 0 14 0;
#X connect 14 0 19 0;
#X connect 14 0 27 0;
#X connect 15 0 13 1;
#X connect 15 0 4 0;
#X connect 16 0 26 0;
#X connect 16 1 17 0;
#X connect 17 0 18 0;
#X connect 18 0 19 1;
#X connect 18 0 28 0;
#X connect 19 0 20 0;
#X connect 19 0 22 0;
#X connect 21 1 15 0;
#X connect 21 2 13 0;
#X connect 23 0 21 0;
#X connect 23 1 16 0;
#X connect 24 0 23 0;
#X connect 25 0 23 0;
#X connect 26 0 17 1;
#X connect 26 0 6 0;
#X connect 26 0 9 1;
#X restore 38 228 pd BPMcalculations;
#X obj 65 21 inlet;
#X text 148 83 5;
#X text 248 83 10;
#X obj 40 173 change;
#X obj 40 196 pack f f;
#X msg 575 28 667 123 67 456 668 80 789 666 345 82;
#X text 577 10 box c0 bpm c1 box bpm c2 solo c3 env;
#X obj 210 171 change;
#X obj 210 194 pack f f;
#N canvas 0 22 775 583 ENVcalculations 0;
#X obj 146 66 inlet;
#X obj 146 93 unpack f f;
#X obj 203 311 t b f;
#X obj 186 361 +;
#X floatatom 228 363 5 0 0 0 - - -, f 5;
#X obj 343 211 + 1;
#X floatatom 299 238 5 0 0 0 - - -, f 5;
#X floatatom 203 243 5 0 0 0 - - -, f 5;
#X obj 280 185 t b b f;
#X obj 299 212 i;
#X text 339 237 number of notes counted here;
#X obj 280 418 f;
#X floatatom 283 446 5 0 0 0 - - -, f 5;
#X msg 324 383 0;
#X obj 372 262 t b b;
#X obj 384 327 i;
#X floatatom 382 363 5 0 0 0 - - -, f 5;
#X obj 367 481 /;
#X obj 367 518 outlet;
#X obj 282 343 t b b b;
#X floatatom 421 504 5 0 0 0 - - -, f 5;
#X obj 345 133 t b b;
#X obj 318 117 bng 15 250 50 0 empty empty empty 17 7 0 10 -262144
-1 -1;
#X text 98 241 envs sum here;
#X text 193 391 sum here;
#X obj 345 65 r envResetBang;
#X msg 400 290 1;
#X text 383 133 use c3 only as a source of bang!;
#X connect 0 0 1 0;
#X connect 1 0 8 0;
#X connect 1 1 7 0;
#X connect 2 1 3 0;
#X connect 3 0 4 0;
#X connect 4 0 3 1;
#X connect 4 0 11 1;
#X connect 5 0 9 1;
#X connect 6 0 15 1;
#X connect 7 0 2 0;
#X connect 8 1 9 0;
#X connect 9 0 5 0;
#X connect 9 0 6 0;
#X connect 11 0 12 0;
#X connect 12 0 17 0;
#X connect 13 0 11 1;
#X connect 13 0 4 0;
#X connect 14 0 26 0;
#X connect 14 1 15 0;
#X connect 15 0 16 0;
#X connect 16 0 17 1;
#X connect 17 0 18 0;
#X connect 17 0 20 0;
#X connect 19 1 13 0;
#X connect 19 2 11 0;
#X connect 21 0 19 0;
#X connect 21 1 14 0;
#X connect 22 0 21 0;
#X connect 25 0 21 0;
#X connect 26 0 15 1;
#X connect 26 0 6 0;
#X connect 26 0 9 1;
#X restore 208 226 pd ENVcalculations;
#X obj 38 280 outlet;
#X obj 208 278 outlet, f 60;
#X obj 65 64 unpack 1 2 3 4 5 6 7 8 9 10 11, f 35;
#X connect 0 0 11 0;
#X connect 1 0 13 0;
#X connect 4 0 5 0;
#X connect 5 0 0 0;
#X connect 8 0 9 0;
#X connect 9 0 10 0;
#X connect 10 0 12 0;
#X connect 13 0 4 0;
#X connect 13 1 5 1;
#X connect 13 7 8 0;
#X connect 13 8 9 1;
#X restore 315 264 pd CALCULATOR668;
#X obj 1325 470 s kickoffBang;
#X obj 1149 914 r kickoffBang;
#X obj 1127 614 select 1;
#X msg 1127 633 111;
#X obj 1127 653 change;
#X obj 1227 640 print StartbangForENVRULE@40s;
#X obj 1149 960 print KICKOFFBANGKICKOFFBANGKICKOFFBANGKICKOFFBANGKICKOFFBANGKICKOFFBANGKICKOFFBANGKICKOFFBANGKICKOFFBANGKICKOFFBANGKICKOFFBANGKICKOFFBANGKICKOFFBANGKICKOFFBANGKICKOFFBANGKICKOFFBANGKICKOFFBANGKICKOFFBANGKICKOFFBANGKICKOFFBANGKICKOFFBANGKICKOFFBANGKICKOFFBANGKICKOFFBANG
, f 45;
#X obj 1211 11 == 666;
#X obj 1127 354 print IDS;
#X obj 493 839 mod 2;
#X obj 491 805 t f f;
#X connect 0 0 37 0;
#X connect 1 0 3 0;
#X connect 2 0 4 0;
#X connect 3 0 0 1;
#X connect 3 0 144 0;
#X connect 4 0 3 0;
#X connect 4 1 3 1;
#X connect 6 0 7 0;
#X connect 6 0 10 0;
#X connect 8 0 9 0;
#X connect 9 0 6 0;
#X connect 10 0 12 0;
#X connect 10 0 178 0;
#X connect 13 1 14 0;
#X connect 14 0 15 0;
#X connect 15 0 14 1;
#X connect 15 0 8 0;
#X connect 15 0 186 0;
#X connect 18 0 13 0;
#X connect 19 0 23 0;
#X connect 20 0 23 0;
#X connect 21 0 23 0;
#X connect 22 0 23 0;
#X connect 23 0 24 0;
#X connect 24 0 25 0;
#X connect 24 1 26 0;
#X connect 24 2 27 0;
#X connect 25 0 18 0;
#X connect 26 0 28 0;
#X connect 27 0 29 0;
#X connect 28 0 13 0;
#X connect 29 0 13 0;
#X connect 30 0 139 0;
#X connect 31 0 185 0;
#X connect 32 0 30 0;
#X connect 35 0 3 1;
#X connect 36 0 3 0;
#X connect 37 0 175 0;
#X connect 37 1 176 0;
#X connect 37 2 177 0;
#X connect 41 0 44 0;
#X connect 42 0 41 0;
#X connect 42 0 43 0;
#X connect 43 0 41 1;
#X connect 44 0 48 0;
#X connect 45 0 42 0;
#X connect 45 0 47 0;
#X connect 46 0 43 0;
#X connect 47 4 71 0;
#X connect 47 4 141 0;
#X connect 47 6 63 0;
#X connect 47 6 140 0;
#X connect 48 0 45 0;
#X connect 48 0 180 0;
#X connect 50 0 42 0;
#X connect 51 0 54 0;
#X connect 52 0 51 0;
#X connect 52 0 53 0;
#X connect 53 0 51 1;
#X connect 54 0 60 0;
#X connect 55 0 52 0;
#X connect 55 0 57 0;
#X connect 56 0 53 0;
#X connect 57 4 72 0;
#X connect 57 4 143 0;
#X connect 57 6 64 0;
#X connect 57 6 142 0;
#X connect 60 0 55 0;
#X connect 61 0 60 1;
#X connect 62 0 48 1;
#X connect 65 0 94 1;
#X connect 65 0 122 0;
#X connect 66 0 67 0;
#X connect 67 0 93 1;
#X connect 68 0 75 0;
#X connect 68 0 127 2;
#X connect 68 0 172 0;
#X connect 69 0 74 0;
#X connect 69 0 127 3;
#X connect 69 0 173 0;
#X connect 70 0 74 1;
#X connect 70 0 127 4;
#X connect 70 0 174 0;
#X connect 73 0 124 0;
#X connect 74 0 75 1;
#X connect 75 0 76 0;
#X connect 76 0 65 0;
#X connect 76 0 127 1;
#X connect 76 0 171 0;
#X connect 77 0 70 0;
#X connect 78 0 69 0;
#X connect 79 0 68 0;
#X connect 80 0 5 0;
#X connect 80 0 151 0;
#X connect 81 0 84 1;
#X connect 82 0 87 1;
#X connect 82 0 92 1;
#X connect 83 1 84 0;
#X connect 84 0 81 0;
#X connect 84 0 82 0;
#X connect 85 0 86 0;
#X connect 85 1 87 0;
#X connect 86 0 87 1;
#X connect 86 0 82 0;
#X connect 86 0 84 1;
#X connect 87 0 89 0;
#X connect 88 0 83 0;
#X connect 92 0 80 0;
#X connect 93 0 80 1;
#X connect 94 0 80 2;
#X connect 95 0 85 0;
#X connect 96 0 57 0;
#X connect 97 0 118 1;
#X connect 98 0 102 0;
#X connect 98 0 137 2;
#X connect 98 0 155 0;
#X connect 99 0 101 0;
#X connect 99 0 137 3;
#X connect 99 0 156 0;
#X connect 100 0 101 1;
#X connect 100 0 137 4;
#X connect 100 0 157 0;
#X connect 101 0 102 1;
#X connect 102 0 103 0;
#X connect 103 0 137 1;
#X connect 103 0 152 0;
#X connect 104 0 100 0;
#X connect 105 0 99 0;
#X connect 106 0 98 0;
#X connect 107 0 137 1;
#X connect 107 0 137 0;
#X connect 108 0 111 1;
#X connect 109 0 114 1;
#X connect 109 0 117 1;
#X connect 110 1 111 0;
#X connect 111 0 108 0;
#X connect 111 0 109 0;
#X connect 112 0 113 0;
#X connect 112 1 114 0;
#X connect 113 0 114 1;
#X connect 113 0 109 0;
#X connect 113 0 111 1;
#X connect 114 0 116 0;
#X connect 115 0 110 0;
#X connect 117 0 188 0;
#X connect 118 0 159 1;
#X connect 119 0 112 0;
#X connect 121 0 124 0;
#X connect 123 0 65 0;
#X connect 123 0 127 1;
#X connect 123 0 127 0;
#X connect 124 1 92 0;
#X connect 124 2 83 0;
#X connect 124 3 93 0;
#X connect 124 4 94 0;
#X connect 124 5 127 0;
#X connect 124 6 68 0;
#X connect 124 7 69 0;
#X connect 124 8 70 0;
#X connect 125 0 110 0;
#X connect 126 0 83 0;
#X connect 127 0 66 0;
#X connect 127 0 170 0;
#X connect 128 0 129 0;
#X connect 129 0 80 0;
#X connect 129 1 161 0;
#X connect 129 2 117 0;
#X connect 129 3 110 0;
#X connect 129 4 118 0;
#X connect 129 5 137 0;
#X connect 129 6 98 0;
#X connect 129 7 99 0;
#X connect 129 8 100 0;
#X connect 130 0 129 0;
#X connect 137 0 97 0;
#X connect 139 0 24 0;
#X connect 146 0 0 0;
#X connect 146 0 38 0;
#X connect 153 0 154 0;
#X connect 158 0 165 0;
#X connect 159 0 80 4;
#X connect 160 0 80 3;
#X connect 161 0 160 0;
#X connect 161 1 159 0;
#X connect 165 0 159 1;
#X connect 166 0 167 0;
#X connect 168 0 169 0;
#X connect 175 0 68 1;
#X connect 175 1 98 1;
#X connect 176 0 69 1;
#X connect 176 1 99 1;
#X connect 177 0 70 1;
#X connect 177 1 100 1;
#X connect 179 0 184 0;
#X connect 180 0 181 0;
#X connect 181 0 182 0;
#X connect 182 0 52 0;
#X connect 182 0 183 0;
#X connect 185 0 30 1;
#X connect 185 0 145 0;
#X connect 187 0 158 0;
#X connect 188 0 160 1;
#X connect 188 1 187 0;
#X restore 950 729 pd masterOFpuppets;
#X msg 565 905 668;
#X obj 288 903 sel 0 -3;
#X obj 352 979 s unmute;
#X text 991 834 as the box number for solo rule \, in order to prevent
;
#X text 992 850 all the boxes from soloing;
#X text 96 913 0 \, -3 \, 666 \, 667 or 668;
#X text 96 929 0 means no one will solo!;
#X text 66 948 *** -3 means no one will solo!;
#X text 967 818 *** when it the master sends BPM command \, it sends
"-3";
#X msg 861 127 20;
#X msg 879 103 8;
#X msg 1143 116 0.033 0.6 1 0.4 0.05 0;
#X msg 1208 143 0.052 0.83 0.9 0.6 0.5 1;
#X msg 1273 173 0.035 0.9 1.2 0.43 0.4 1;
#X connect 4 0 119 2;
#X connect 6 0 61 0;
#X connect 6 0 116 0;
#X connect 9 0 116 1;
#X connect 10 0 114 0;
#X connect 10 0 121 0;
#X connect 11 0 13 0;
#X connect 13 1 10 0;
#X connect 13 2 10 1;
#X connect 14 0 11 0;
#X connect 15 0 16 0;
#X connect 15 0 123 0;
#X connect 16 0 60 0;
#X connect 17 0 18 0;
#X connect 18 0 19 0;
#X connect 18 0 122 0;
#X connect 19 1 20 0;
#X connect 19 1 130 0;
#X connect 21 0 30 0;
#X connect 22 0 31 0;
#X connect 23 0 113 0;
#X connect 23 0 113 1;
#X connect 24 0 25 0;
#X connect 25 0 119 3;
#X connect 25 1 119 4;
#X connect 25 2 119 5;
#X connect 25 3 119 6;
#X connect 25 4 119 7;
#X connect 26 0 116 0;
#X connect 28 0 119 0;
#X connect 30 0 32 0;
#X connect 31 0 32 0;
#X connect 32 0 23 1;
#X connect 32 0 63 0;
#X connect 33 0 130 0;
#X connect 34 0 130 0;
#X connect 35 0 130 0;
#X connect 39 0 38 0;
#X connect 40 0 37 0;
#X connect 50 0 100 0;
#X connect 51 0 99 0;
#X connect 55 0 23 0;
#X connect 60 0 5 0;
#X connect 64 0 40 0;
#X connect 65 0 39 0;
#X connect 66 0 64 1;
#X connect 66 0 65 1;
#X connect 67 0 130 0;
#X connect 76 0 119 1;
#X connect 83 0 119 8;
#X connect 84 0 119 9;
#X connect 88 0 116 0;
#X connect 91 0 72 0;
#X connect 94 0 95 0;
#X connect 94 0 97 0;
#X connect 95 0 50 0;
#X connect 95 0 51 0;
#X connect 95 0 139 0;
#X connect 95 0 138 0;
#X connect 97 0 140 0;
#X connect 97 1 141 0;
#X connect 97 2 142 0;
#X connect 111 0 31 0;
#X connect 112 0 126 0;
#X connect 114 0 90 0;
#X connect 115 0 114 1;
#X connect 116 0 120 0;
#X connect 117 0 123 0;
#X connect 118 0 127 0;
#X connect 119 0 59 0;
#X connect 120 2 14 0;
#X connect 120 3 11 1;
#X connect 120 4 11 2;
#X connect 120 5 17 0;
#X connect 120 6 18 1;
#X connect 123 0 119 0;
#X connect 129 0 65 1;
#X connect 129 0 64 1;
#X connect 130 0 36 0;
#X connect 130 1 131 0;
#X connect 130 2 64 0;
#X connect 130 2 65 0;
#X connect 138 0 108 0;
#X connect 139 0 101 0;
#X connect 140 0 98 0;
#X connect 141 0 98 0;
#X connect 142 0 98 0;
